ply
format ascii 1.0
comment Created by Open3D
element vertex 73
property double x
property double y
property double z
end_header
65 13 10
45 16 11
85 17 13
26 19 13
66 21 10
8 23 17
47 25 11
94 23 14
75 27 12
57 30 11
29 32 12
9 36 18
98 34 13
35 34 10
18 40 14
58 44 10
71 47 10
39 48 9
21 53 14
50 51 10
91 54 12
72 56 10
103 56 11
32 56 13
12 60 17
81 60 11
55 62 9
64 65 10
35 67 12
103 69 10
44 69 9
85 72 10
17 72 17
25 74 14
65 74 9
95 77 10
75 81 8
46 82 8
57 84 9
96 87 9
28 87 13
78 89 8
107 90 8
38 89 11
59 94 8
19 94 16
89 96 8
40 98 11
69 98 8
110 98 7
51 102 7
92 105 7
23 106 15
33 109 12
73 109 6
102 111 7
82 113 5
52 115 6
63 117 6
35 118 11
103 120 5
114 122 3
45 123 9
81 126 5
27 127 14
65 128 5
95 127 4
77 131 4
50 134 6
28 138 13
56 136 4
37 142 10
41 154 8
