ply
format ascii 1.0
comment Created by Open3D
element vertex 81
property double x
property double y
property double z
end_header
172 10 25
98 8 5
137 9 15
31 8 9
65 12 8
135 30 19
29 31 13
66 32 11
97 32 13
174 32 31
122 41 18
187 42 38
42 42 12
79 45 10
153 43 27
44 62 15
154 64 31
81 64 14
188 63 39
112 66 21
166 74 37
137 73 28
96 74 20
61 77 20
25 75 22
133 94 30
98 94 24
170 94 40
62 95 22
25 97 25
155 103 37
186 104 44
113 104 29
76 106 22
40 106 24
186 126 47
114 128 32
77 128 24
152 128 40
40 131 28
170 135 46
135 136 38
97 138 31
57 138 28
23 140 32
60 157 32
95 159 33
170 160 48
23 161 34
129 161 39
188 168 50
74 170 31
115 172 38
150 172 44
43 174 34
152 186 46
189 190 52
78 189 32
113 192 39
41 193 35
167 200 50
134 201 43
97 202 38
25 203 40
58 207 38
169 217 53
133 220 43
60 225 40
23 227 42
99 227 39
190 232 54
153 233 49
114 235 43
75 235 37
38 236 41
197 257 56
148 259 49
144 262 49
116 264 45
51 264 43
79 265 42
