ply
format ascii 1.0
comment Created by Open3D
element vertex 48
property double x
property double y
property double z
end_header
105 6 134
93 7 119
72 8 89
81 14 103
102 16 129
62 17 76
87 20 111
65 19 80
73 25 91
112 24 136
94 28 120
58 31 71
79 33 101
66 36 84
88 40 111
75 42 95
58 45 73
83 49 106
98 48 123
67 53 85
109 55 132
91 57 116
76 60 96
60 62 75
116 65 136
82 66 104
99 67 123
68 70 85
92 74 116
110 73 131
75 79 93
60 81 74
121 81 137
101 83 124
70 86 88
91 91 115
111 92 130
78 95 97
64 97 79
104 99 126
123 98 138
72 105 91
86 102 109
114 108 132
96 110 118
65 113 81
78 111 97
109 119 129
