ply
format ascii 1.0
comment Created by Open3D
element vertex 56
property double x
property double y
property double z
end_header
27 9 55
11 16 33
19 18 46
41 17 80
48 22 92
7 25 22
5 31 14
20 30 49
41 31 79
44 30 82
4 33 10
52 33 93
25 35 59
14 38 38
46 41 82
18 43 51
54 45 94
8 45 26
18 54 50
46 53 83
6 54 12
55 55 97
52 56 93
27 57 61
18 61 47
15 60 40
21 64 54
55 65 98
11 68 30
39 70 76
46 74 86
9 74 14
15 74 35
22 74 54
55 76 99
30 76 65
12 79 25
39 80 77
11 84 14
54 87 101
15 88 28
37 91 79
38 97 76
47 93 90
11 94 13
10 95 11
33 96 67
57 98 103
40 100 80
27 104 54
47 105 89
13 109 21
41 110 80
18 113 33
22 109 43
11 113 10
