ply
format ascii 1.0
comment Created by Open3D
element vertex 79
property double x
property double y
property double z
end_header
62 7 27
132 10 8
171 9 4
29 9 33
61 27 31
131 31 12
94 30 21
168 31 7
24 34 41
72 42 25
149 41 12
114 42 16
191 44 7
37 42 34
190 60 8
75 63 26
116 64 19
152 64 12
42 67 34
169 74 12
92 74 25
61 73 36
132 74 16
25 78 46
94 94 28
171 95 13
132 97 19
61 97 39
21 102 53
149 106 17
116 108 24
188 107 12
73 108 33
42 111 41
150 130 18
114 131 26
190 130 12
73 132 34
39 133 44
174 140 17
90 141 31
132 141 22
54 144 45
27 144 54
170 162 18
134 165 23
23 165 58
59 165 46
91 166 35
111 175 30
191 176 13
150 179 22
73 177 38
39 181 48
40 198 49
114 198 29
189 198 13
153 199 20
73 200 39
90 207 35
172 208 19
130 210 25
57 209 49
22 215 61
56 230 50
169 231 18
130 232 25
94 231 37
23 232 61
197 240 19
41 242 52
114 244 28
72 244 40
191 243 11
154 242 21
190 260 9
155 263 23
15 272 67
186 269 14
